<svg version="1.1" viewBox="0.0 0.0 128.41732283464566 128.18897637795277" fill="none" stroke="none" stroke-linecap="square" stroke-miterlimit="10" xmlns:xlink="http://www.w3.org/1999/xlink" xmlns="http://www.w3.org/2000/svg"><clipPath id="p.0"><path d="m0 0l128.41733 0l0 128.18898l-128.41733 0l0 -128.18898z" clip-rule="nonzero"/></clipPath><g clip-path="url(#p.0)"><path fill="#000000" fill-opacity="0.0" d="m0 0l128.41733 0l0 128.18898l-128.41733 0z" fill-rule="evenodd"/><path fill="#ffffff" d="m0.003937008 64.09449l0 0c0 -35.45929 28.745434 -64.20473 64.20473 -64.20473l0 0c17.028152 0 33.35887 6.7644067 45.399597 18.80513c12.040718 12.04072 18.80513 28.371445 18.80513 45.399597l0 0c0 35.45929 -28.745438 64.20472 -64.20473 64.20472l0 0c-35.459293 0 -64.20473 -28.74543 -64.20473 -64.20472z" fill-rule="evenodd"/><path stroke="#ffffff" stroke-width="1.0" stroke-linejoin="round" stroke-linecap="butt" d="m0.003937008 64.09449l0 0c0 -35.45929 28.745434 -64.20473 64.20473 -64.20473l0 0c17.028152 0 33.35887 6.7644067 45.399597 18.80513c12.040718 12.04072 18.80513 28.371445 18.80513 45.399597l0 0c0 35.45929 -28.745438 64.20472 -64.20473 64.20472l0 0c-35.459293 0 -64.20473 -28.74543 -64.20473 -64.20472z" fill-rule="evenodd"/><path fill="#8e7cc3" d="m49.202065 116.29002l0 0c-8.384293 0 -15.181103 -23.556168 -15.181103 -52.61417c0 -29.058006 6.79681 -52.614174 15.181103 -52.614174c8.384289 0 15.181099 23.556168 15.181099 52.614174l-15.181099 0z" fill-rule="evenodd"/><path stroke="#8e7cc3" stroke-width="1.194225721784777" stroke-linejoin="round" stroke-linecap="butt" d="m49.202065 116.29002l0 0c-8.384293 0 -15.181103 -23.556168 -15.181103 -52.61417c0 -29.058006 6.79681 -52.614174 15.181103 -52.614174c8.384289 0 15.181099 23.556168 15.181099 52.614174l-15.181099 0z" fill-rule="evenodd"/><path fill="#8e7cc3" d="m79.22026 11.898283l0 0c8.384293 0 15.181107 23.55617 15.181107 52.614174c0 29.058006 -6.796814 52.614174 -15.181107 52.614174c-8.384285 0 -15.181099 -23.556168 -15.181099 -52.614174l15.181099 0z" fill-rule="evenodd"/><path stroke="#8e7cc3" stroke-width="1.194225721784777" stroke-linejoin="round" stroke-linecap="butt" d="m79.22026 11.898283l0 0c8.384293 0 15.181107 23.55617 15.181107 52.614174c0 29.058006 -6.796814 52.614174 -15.181107 52.614174c-8.384285 0 -15.181099 -23.556168 -15.181099 -52.614174l15.181099 0z" fill-rule="evenodd"/></g></svg>